<svg width="60.139mm" height="63.358mm" version="1.1" viewBox="0 0 60.139 63.358" xmlns="http://www.w3.org/2000/svg">
 <g transform="translate(-30.956 -147.37)">
  <g transform="translate(11.762 -52.694)">
   <path transform="translate(2.0266 153.44)" d="m62.277 104.35c-13.019 7.52-17.048 7.5208-30.07.006-13.022-7.5148-15.037-11.003-15.04-26.038-.003-15.035 2.0106-18.524 15.03-26.044 13.019-7.52 17.048-7.5208 30.07-.006 13.022 7.5148 15.037 11.003 15.04 26.038.003 15.035-2.0106 18.524-15.03 26.044z" fill="#53597c" stroke-width=".26458"/>
   <g transform="translate(3.2899 .19695)" stroke="#f8f8f2">
    <g transform="matrix(.82444 0 0 .82444 2.6483 162.58)" fill="none" stroke-width="1.4008">
     <path d="m33.819 75.53c0-5.283 0-7.9245 1.6412-9.5657 1.6412-1.6412 4.2827-1.6412 9.5657-1.6412h2.8017c5.2829 0 7.9245 0 9.5656 1.6412 1.6412 1.6412 1.6412 4.2827 1.6412 9.5657v5.6034c0 5.2829 0 7.9245-1.6412 9.5656-1.6411 1.6412-4.2827 1.6412-9.5656 1.6412h-2.8017c-5.283 0-7.9245 0-9.5657-1.6412-1.6412-1.6411-1.6412-4.2827-1.6412-9.5656z"/>
     <g stroke-linecap="round">
      <path d="m40.824 78.332h11.207"/>
      <path d="m40.824 72.728h11.207"/>
      <path d="m40.824 83.935h7.0043"/>
     </g>
    </g>
    <g transform="matrix(.8305 0 0 .81278 -.23214 55.155)" fill="#53597c" stroke-width="1.6083">
     <path d="m52.679 225.82c0-5.0543 0-7.5814 1.5702-9.1516 1.5702-1.5702 4.0973-1.5702 9.1516-1.5702 5.0542 0 7.5815 0 9.1515 1.5702 1.5702 1.5702 1.5702 4.0973 1.5702 9.1516 0 5.0542 0 7.5815-1.5702 9.1516-1.5701 1.5702-4.0973 1.5702-9.1515 1.5702-5.0543 0-7.5814 0-9.1516-1.5702-1.5702-1.5701-1.5702-4.0973-1.5702-9.1516z"/>
     <circle cx="67.69" cy="221.53" r="2.1443"/>
     <path d="m52.679 226.36 1.878-1.6432c.97704-.85484 2.4496-.80584 3.3676.11215l4.5993 4.5993c.7368.73691 1.8967.83737 2.7493.23813l.31972-.22462c1.2268-.86224 2.8866-.76232 4.0012.24081l3.4562 3.1105" stroke-linecap="round"/>
    </g>
   </g>
  </g>
 </g>
</svg>
