<svg width="60.139mm" height="63.358mm" version="1.1" viewBox="0 0 60.139 63.358" xmlns="http://www.w3.org/2000/svg">
 <g transform="translate(-60.06 -57.944)">
  <g transform="translate(42.863 29.898)">
   <path transform="translate(.030408 -18.583)" d="m62.277 104.35c-13.019 7.52-17.048 7.5208-30.07.006-13.022-7.5148-15.037-11.003-15.04-26.038-.003-15.035 2.0106-18.524 15.03-26.044 13.019-7.52 17.048-7.5208 30.07-.006 13.022 7.5148 15.037 11.003 15.04 26.038.003 15.035-2.0106 18.524-15.03 26.044z" fill="#53597c" stroke-width=".26458"/>
   <g transform="translate(-3.2664 -5.9087)" stroke="#f8f8f2" stroke-width="1.4008">
    <g transform="matrix(.74505 0 0 .74505 6.144 -.012595)" fill="none">
     <path d="m33.819 75.53c0-5.283 0-7.9245 1.6412-9.5657 1.6412-1.6412 4.2827-1.6412 9.5657-1.6412h2.8017c5.2829 0 7.9245 0 9.5656 1.6412 1.6412 1.6412 1.6412 4.2827 1.6412 9.5657v5.6034c0 5.2829 0 7.9245-1.6412 9.5656-1.6411 1.6412-4.2827 1.6412-9.5656 1.6412h-2.8017c-5.283 0-7.9245 0-9.5657-1.6412-1.6412-1.6411-1.6412-4.2827-1.6412-9.5656z"/>
     <g stroke-linecap="round">
      <path d="m40.824 78.332h11.207"/>
      <path d="m40.824 72.728h11.207"/>
      <path d="m40.824 83.935h7.0043"/>
     </g>
    </g>
    <g transform="matrix(.74505 0 0 .74505 15.871 7.2769)" fill="#53597c">
     <path d="m33.819 75.53c0-5.283 0-7.9245 1.6412-9.5657 1.6412-1.6412 4.2827-1.6412 9.5657-1.6412h2.8017c5.2829 0 7.9245 0 9.5656 1.6412 1.6412 1.6412 1.6412 4.2827 1.6412 9.5657v5.6034c0 5.2829 0 7.9245-1.6412 9.5656-1.6411 1.6412-4.2827 1.6412-9.5656 1.6412h-2.8017c-5.283 0-7.9245 0-9.5657-1.6412-1.6412-1.6411-1.6412-4.2827-1.6412-9.5656z"/>
     <g stroke-linecap="round">
      <path d="m40.824 78.332h11.207"/>
      <path d="m40.824 72.728h11.207"/>
      <path d="m40.824 83.935h7.0043"/>
     </g>
    </g>
    <g transform="matrix(.74505 0 0 .74505 25.742 14.557)" fill="#53597c">
     <path d="m33.819 75.53c0-5.283 0-7.9245 1.6412-9.5657 1.6412-1.6412 4.2827-1.6412 9.5657-1.6412h2.8017c5.2829 0 7.9245 0 9.5656 1.6412 1.6412 1.6412 1.6412 4.2827 1.6412 9.5657v5.6034c0 5.2829 0 7.9245-1.6412 9.5656-1.6411 1.6412-4.2827 1.6412-9.5656 1.6412h-2.8017c-5.283 0-7.9245 0-9.5657-1.6412-1.6412-1.6411-1.6412-4.2827-1.6412-9.5656z"/>
     <g stroke-linecap="round">
      <path d="m40.824 78.332h11.207"/>
      <path d="m40.824 72.728h11.207"/>
      <path d="m40.824 83.935h7.0043"/>
     </g>
    </g>
   </g>
  </g>
 </g>
</svg>
