<svg width="60.139mm" height="63.358mm" version="1.1" viewBox="0 0 60.139 63.358" xmlns="http://www.w3.org/2000/svg">
 <g transform="translate(-74.877 -116.95)">
  <g transform="translate(-8.7041 13.382)">
   <path transform="translate(66.414 56.935)" d="m62.277 104.35c-13.019 7.52-17.048 7.5208-30.07.006-13.022-7.5148-15.037-11.003-15.04-26.038-.003-15.035 2.0106-18.524 15.03-26.044 13.019-7.52 17.048-7.5208 30.07-.006 13.022 7.5148 15.037 11.003 15.04 26.038.003 15.035-2.0106 18.524-15.03 26.044z" fill="#53597c" stroke-width=".26458"/>
   <g transform="matrix(.82444 0 0 .82444 68.258 67.376)" fill="none" stroke="#f8f8f2" stroke-width="1.4008">
    <path d="m33.819 75.53c0-5.283 0-7.9245 1.6412-9.5657 1.6412-1.6412 4.2827-1.6412 9.5657-1.6412h2.8017c5.2829 0 7.9245 0 9.5656 1.6412 1.6412 1.6412 1.6412 4.2827 1.6412 9.5657v5.6034c0 5.2829 0 7.9245-1.6412 9.5656-1.6411 1.6412-4.2827 1.6412-9.5656 1.6412h-2.8017c-5.283 0-7.9245 0-9.5657-1.6412-1.6412-1.6411-1.6412-4.2827-1.6412-9.5656z"/>
    <g stroke-linecap="round">
     <path d="m40.824 78.332h11.207"/>
     <path d="m40.824 72.728h11.207"/>
     <path d="m40.824 83.935h7.0043"/>
    </g>
   </g>
   <g fill="#53597c" stroke="#f8f8f2" stroke-width="1.5863">
    <path d="m109.83 140.15c.0779-1.2784.11687-1.9176.44812-2.5323.30265-.56171.88171-1.1066 1.4608-1.3745.6338-.29322 1.3603-.29322 2.8132-.29322.54152 0 .81229 0 1.0746-.0443.25928-.0438.51212-.11964.75269-.22581.24334-.10739.46939-.25644.92149-.55452l.23152-.15266c2.6892-1.7731 4.0338-2.6597 5.1626-2.2745.21637.0738.42586.18046.61294.31194.97576.68574 1.0499 2.2812 1.1982 5.4722.0549 1.1816.0923 2.1928.0923 2.7552 0 .5625-.0374 1.5737-.0923 2.7553-.14826 3.1909-.2224 4.7864-1.1982 5.4721-.18708.13155-.39657.23815-.61294.31197-1.1288.38514-2.4734-.50137-5.1626-2.2745l-.23152-.1526c-.4521-.29811-.67815-.44722-.92149-.55456-.24057-.10617-.49341-.182-.75269-.22578-.26227-.0443-.53304-.0443-1.0746-.0443-1.4529 0-2.1794 0-2.8132-.29325-.57908-.26787-1.1581-.8128-1.4608-1.3744-.33125-.61484-.3702-1.254-.44812-2.5323-.0231-.37816-.0368-.7466-.0368-1.0876 0-.34094.0137-.70938.0368-1.0875z"/>
    <path d="m129.36 134.89s1.5863 1.9035 1.5863 6.3451c0 4.4416-1.5863 6.3451-1.5863 6.3451" stroke-linecap="round"/>
    <path d="m127.24 138.07s.52876.95176.52876 3.1726c0 2.2208-.52876 3.1725-.52876 3.1725" stroke-linecap="round"/>
   </g>
  </g>
 </g>
</svg>
