<svg width="38.802mm" height="37.972mm" version="1.1" viewBox="0 0 38.802 37.972" xmlns="http://www.w3.org/2000/svg">
 <g transform="translate(-50.006 -83.873)">
  <g transform="translate(13.758 -114.83)">
   <path transform="matrix(.42867 0 0 .42867 34.072 151.38)" d="m75.805 190.82c-11.164 7.8705-12.441 8.2655-26.099 8.071s-14.923-.62572-25.858-8.8109c-10.935-8.1852-11.705-9.278-15.741-22.327-4.0355-13.049-4.0165-14.386.38896-27.316 4.4054-12.929 5.2067-14 16.37-21.87 11.164-7.8705 12.441-8.2655 26.099-8.071 13.658.19447 14.923.62571 25.858 8.8109s11.705 9.278 15.741 22.327c4.0355 13.049 4.0165 14.386-.38896 27.316s-5.2067 14-16.37 21.87z" fill="#727aa8" stroke="#f8f8f2" stroke-width=".12"/>
   <g transform="matrix(.42268 0 0 .42268 41.111 204.59)" fill="none" stroke="#fff" stroke-width="3">
    <circle cx="34.52" cy="11.43" r="5.82"/>
    <circle cx="53.63" cy="31.6" r="5.82"/>
    <circle cx="34.52" cy="50.57" r="5.82"/>
    <circle cx="15.16" cy="42.03" r="5.82"/>
    <circle cx="15.16" cy="19.27" r="5.82"/>
    <circle cx="34.51" cy="29.27" r="4.7"/>
    <line x1="20.17" x2="28.9" y1="16.3" y2="12.93"/>
    <line x1="38.6" x2="49.48" y1="15.59" y2="27.52"/>
    <line x1="50.07" x2="38.67" y1="36.2" y2="46.49"/>
    <line x1="18.36" x2="30.91" y1="24.13" y2="46.01"/>
    <line x1="20.31" x2="28.7" y1="44.74" y2="48.63"/>
    <line x1="17.34" x2="31.37" y1="36.63" y2="16.32"/>
    <line x1="20.52" x2="30.34" y1="21.55" y2="27.1"/>
    <line x1="39.22" x2="47.81" y1="29.8" y2="30.45"/>
    <line x1="34.51" x2="34.52" y1="33.98" y2="44.74"/>
   </g>
  </g>
 </g>
</svg>
