<svg width="38.802mm" height="37.972mm" version="1.1" viewBox="0 0 38.802 37.972" xmlns="http://www.w3.org/2000/svg">
 <g transform="translate(-51.858 -56.092)">
  <g transform="translate(-27.279 -111.07)">
   <path transform="matrix(.42867 0 0 .42867 76.961 119.84)" d="m75.805 190.82c-11.164 7.8705-12.441 8.2655-26.099 8.071s-14.923-.62572-25.858-8.8109c-10.935-8.1852-11.705-9.278-15.741-22.327-4.0355-13.049-4.0165-14.386.38896-27.316 4.4054-12.929 5.2067-14 16.37-21.87 11.164-7.8705 12.441-8.2655 26.099-8.071 13.658.19447 14.923.62571 25.858 8.8109s11.705 9.278 15.741 22.327c4.0355 13.049 4.0165 14.386-.38896 27.316s-5.2067 14-16.37 21.87z" fill="#727aa8" stroke="#f8f8f2" stroke-width=".12"/>
   <g transform="matrix(1.2966 0 0 1.2966 82.979 170.59)" fill="#fff">
    <g fill="#fff" data-name="question-mark">
     <rect transform="rotate(180,12,12)" width="24" height="24" opacity="0"/>
     <path d="m17 9a5 5 0 00-10 0 1 1 0 002 0 3 3 0 113 3 1 1 0 00-1 1v2a1 1 0 002 0v-1.1a5 5 0 004-4.9z"/>
     <circle cx="12" cy="19" r="1"/>
    </g>
   </g>
  </g>
 </g>
</svg>
